<svg xmlns="http://www.w3.org/2000/svg" xmlns:xlink="http://www.w3.org/1999/xlink" width="500" zoomAndPan="magnify" viewBox="0 0 375 374.999991" height="500" preserveAspectRatio="xMidYMid meet" version="1.0"><defs><g/><clipPath id="81ab429617"><path d="M 131.734375 98.042969 L 241.984375 98.042969 L 241.984375 208.292969 L 131.734375 208.292969 Z M 131.734375 98.042969 " clip-rule="nonzero"/></clipPath></defs><g clip-path="url(#81ab429617)"><path fill="#38b6ff" d="M 180.050781 183.039062 L 168.457031 190.65625 C 167.417969 191.339844 166.050781 190.527344 166.148438 189.292969 L 167.273438 175.269531 C 167.363281 174.164062 168.589844 173.539062 169.539062 174.117188 L 180.007812 180.519531 C 180.941406 181.09375 180.964844 182.4375 180.050781 183.039062 Z M 211.566406 162.535156 C 210.984375 163.488281 209.734375 163.789062 208.78125 163.207031 L 208.703125 163.15625 L 205.761719 161.359375 L 202.714844 159.496094 C 201.761719 158.914062 201.460938 157.664062 202.042969 156.710938 L 234.546875 103.558594 C 232.789062 102.066406 230.792969 100.847656 228.625 99.964844 L 196.132812 153.09375 C 196.078125 153.179688 196.019531 153.261719 195.953125 153.335938 C 195.371094 154.117188 194.277344 154.335938 193.429688 153.820312 L 190.910156 152.277344 L 187.28125 150.058594 C 186.324219 149.472656 186.023438 148.226562 186.609375 147.269531 L 216.535156 98.332031 L 208.433594 98.300781 L 180.695312 143.652344 C 180.644531 143.738281 180.582031 143.820312 180.519531 143.894531 C 179.9375 144.675781 178.84375 144.898438 177.992188 144.378906 L 176.816406 143.660156 L 171.84375 140.617188 C 170.886719 140.035156 170.585938 138.785156 171.171875 137.828125 L 195.375 98.25 L 154.121094 98.089844 C 141.984375 98.042969 132.109375 107.84375 132.0625 119.976562 L 131.804688 186.28125 C 131.761719 198.417969 141.558594 208.292969 153.695312 208.339844 L 220 208.59375 C 232.132812 208.640625 242.007812 198.84375 242.054688 186.707031 L 242.3125 120.402344 C 242.320312 118.121094 241.980469 115.917969 241.34375 113.847656 L 211.566406 162.535156 " fill-opacity="1" fill-rule="nonzero"/></g><g fill="#31373e" fill-opacity="1"><g transform="translate(146.144526, 267.729621)"><g><path d="M 12.578125 0 L 10.234375 0 L 10.21875 -6.828125 L 7.6875 -1.046875 L 5.953125 -1.046875 L 3.4375 -6.828125 L 3.4375 0 L 1.046875 0 L 1.046875 -10.515625 L 3.96875 -10.515625 L 6.828125 -4.265625 L 9.671875 -10.515625 L 12.578125 -10.515625 Z M 12.578125 0 "/></g></g></g><g fill="#31373e" fill-opacity="1"><g transform="translate(161.294512, 267.729621)"><g><path d="M 8.03125 -1.9375 L 3.4375 -1.9375 L 2.671875 0 L -0.078125 0 L 4.453125 -10.5 L 7.203125 -10.5 L 11.625 0 L 8.78125 0 Z M 7.25 -3.953125 L 5.75 -7.84375 L 4.21875 -3.953125 Z M 7.25 -3.953125 "/></g></g></g><g fill="#31373e" fill-opacity="1"><g transform="translate(174.344495, 267.729621)"><g><path d="M 9.078125 -8.359375 L 5.90625 -8.359375 L 5.90625 0 L 3.234375 0 L 3.234375 -8.359375 L 0.109375 -8.359375 L 0.109375 -10.515625 L 9.078125 -10.515625 Z M 9.078125 -8.359375 "/></g></g></g><g fill="#31373e" fill-opacity="1"><g transform="translate(185.009484, 267.729621)"><g><path d="M 9.078125 -8.359375 L 5.90625 -8.359375 L 5.90625 0 L 3.234375 0 L 3.234375 -8.359375 L 0.109375 -8.359375 L 0.109375 -10.515625 L 9.078125 -10.515625 Z M 9.078125 -8.359375 "/></g></g></g><g fill="#31373e" fill-opacity="1"><g transform="translate(195.674473, 267.729621)"><g><path d="M 9.265625 -8.40625 L 3.71875 -8.40625 L 3.71875 -6.3125 L 8.734375 -6.3125 L 8.734375 -4.21875 L 3.71875 -4.21875 L 3.71875 -2.09375 L 9.4375 -2.09375 L 9.4375 0 L 1.046875 0 L 1.046875 -10.5 L 9.265625 -10.5 Z M 9.265625 -8.40625 "/></g></g></g><g fill="#31373e" fill-opacity="1"><g transform="translate(207.284457, 267.729621)"><g><path d="M 7.375 0 L 5.8125 -2.953125 L 3.71875 -2.953125 L 3.71875 0 L 1.046875 0 L 1.046875 -10.5 L 5.75 -10.5 C 7.132812 -10.5 8.207031 -10.179688 8.96875 -9.546875 C 9.726562 -8.910156 10.109375 -8.007812 10.109375 -6.84375 C 10.109375 -5.21875 9.472656 -4.09375 8.203125 -3.46875 L 10.40625 0 Z M 3.71875 -5.0625 L 5.75 -5.0625 C 6.320312 -5.0625 6.769531 -5.203125 7.09375 -5.484375 C 7.414062 -5.773438 7.578125 -6.195312 7.578125 -6.75 C 7.578125 -7.289062 7.414062 -7.703125 7.09375 -7.984375 C 6.769531 -8.265625 6.320312 -8.40625 5.75 -8.40625 L 3.71875 -8.40625 Z M 3.71875 -5.0625 "/></g></g></g><g fill="#31373e" fill-opacity="1"><g transform="translate(219.644442, 267.729621)"><g><path d="M 5.078125 -10.625 C 6.648438 -10.625 8.03125 -10.234375 9.21875 -9.453125 L 8.21875 -7.359375 C 7.664062 -7.679688 7.070312 -7.941406 6.4375 -8.140625 C 5.8125 -8.347656 5.285156 -8.453125 4.859375 -8.453125 C 4.085938 -8.453125 3.703125 -8.195312 3.703125 -7.6875 C 3.703125 -7.363281 3.890625 -7.097656 4.265625 -6.890625 C 4.648438 -6.691406 5.113281 -6.519531 5.65625 -6.375 C 6.207031 -6.238281 6.753906 -6.066406 7.296875 -5.859375 C 7.835938 -5.648438 8.296875 -5.316406 8.671875 -4.859375 C 9.054688 -4.398438 9.25 -3.820312 9.25 -3.125 C 9.25 -2.113281 8.851562 -1.320312 8.0625 -0.75 C 7.28125 -0.1875 6.28125 0.09375 5.0625 0.09375 C 4.1875 0.09375 3.320312 -0.0546875 2.46875 -0.359375 C 1.625 -0.660156 0.882812 -1.070312 0.25 -1.59375 L 1.296875 -3.640625 C 1.816406 -3.179688 2.4375 -2.800781 3.15625 -2.5 C 3.882812 -2.207031 4.523438 -2.0625 5.078125 -2.0625 C 5.515625 -2.0625 5.851562 -2.140625 6.09375 -2.296875 C 6.332031 -2.453125 6.453125 -2.679688 6.453125 -2.984375 C 6.453125 -3.273438 6.3125 -3.515625 6.03125 -3.703125 C 5.757812 -3.898438 5.414062 -4.046875 5 -4.140625 C 4.59375 -4.242188 4.148438 -4.375 3.671875 -4.53125 C 3.191406 -4.6875 2.742188 -4.859375 2.328125 -5.046875 C 1.921875 -5.242188 1.582031 -5.546875 1.3125 -5.953125 C 1.039062 -6.367188 0.90625 -6.867188 0.90625 -7.453125 C 0.90625 -8.410156 1.285156 -9.175781 2.046875 -9.75 C 2.804688 -10.332031 3.816406 -10.625 5.078125 -10.625 Z M 5.078125 -10.625 "/></g></g></g><g fill="#31373e" fill-opacity="1"><g transform="translate(95.402342, 246.179602)"><g><path d="M 18.84375 -17.921875 L 7.9375 -17.921875 L 7.9375 -12.734375 L 17.984375 -12.734375 L 17.984375 -8.25 L 7.9375 -8.25 L 7.9375 0 L 2.234375 0 L 2.234375 -22.40625 L 18.84375 -22.40625 Z M 18.84375 -17.921875 "/></g></g></g><g fill="#31373e" fill-opacity="1"><g transform="translate(114.725587, 246.179602)"><g><path d="M 15.75 0 L 12.421875 -6.296875 L 7.9375 -6.296875 L 7.9375 0 L 2.234375 0 L 2.234375 -22.40625 L 12.25 -22.40625 C 15.21875 -22.40625 17.507812 -21.726562 19.125 -20.375 C 20.75 -19.019531 21.5625 -17.09375 21.5625 -14.59375 C 21.5625 -11.132812 20.207031 -8.734375 17.5 -7.390625 L 22.203125 0 Z M 7.9375 -10.78125 L 12.25 -10.78125 C 13.488281 -10.78125 14.445312 -11.085938 15.125 -11.703125 C 15.8125 -12.328125 16.15625 -13.226562 16.15625 -14.40625 C 16.15625 -15.550781 15.8125 -16.421875 15.125 -17.015625 C 14.445312 -17.617188 13.488281 -17.921875 12.25 -17.921875 L 7.9375 -17.921875 Z M 7.9375 -10.78125 "/></g></g></g><g fill="#31373e" fill-opacity="1"><g transform="translate(137.887889, 246.179602)"><g><path d="M 12.859375 -22.59375 C 16.335938 -22.59375 19.226562 -21.507812 21.53125 -19.34375 C 23.832031 -17.175781 24.984375 -14.472656 24.984375 -11.234375 C 24.984375 -7.972656 23.828125 -5.242188 21.515625 -3.046875 C 19.203125 -0.847656 16.316406 0.25 12.859375 0.25 C 9.410156 0.25 6.53125 -0.835938 4.21875 -3.015625 C 1.914062 -5.203125 0.765625 -7.941406 0.765625 -11.234375 C 0.765625 -14.492188 1.914062 -17.203125 4.21875 -19.359375 C 6.53125 -21.515625 9.410156 -22.59375 12.859375 -22.59375 Z M 12.921875 -17.828125 C 11.171875 -17.828125 9.675781 -17.191406 8.4375 -15.921875 C 7.207031 -14.648438 6.59375 -13.078125 6.59375 -11.203125 C 6.59375 -9.328125 7.21875 -7.742188 8.46875 -6.453125 C 9.71875 -5.160156 11.203125 -4.515625 12.921875 -4.515625 C 14.648438 -4.515625 16.117188 -5.160156 17.328125 -6.453125 C 18.535156 -7.742188 19.140625 -9.328125 19.140625 -11.203125 C 19.140625 -13.078125 18.535156 -14.648438 17.328125 -15.921875 C 16.117188 -17.191406 14.648438 -17.828125 12.921875 -17.828125 Z M 12.921875 -17.828125 "/></g></g></g><g fill="#31373e" fill-opacity="1"><g transform="translate(163.641557, 246.179602)"><g><path d="M 22.90625 0 L 17.890625 0 L 7.578125 -13.796875 L 7.578125 0 L 2.234375 0 L 2.234375 -22.40625 L 7.265625 -22.40625 L 17.59375 -8.578125 L 17.59375 -22.40625 L 22.90625 -22.40625 Z M 22.90625 0 "/></g></g></g><g fill="#31373e" fill-opacity="1"><g transform="translate(188.787372, 246.179602)"><g><path d="M 19.359375 -17.828125 L 12.609375 -17.828125 L 12.609375 0 L 6.90625 0 L 6.90625 -17.828125 L 0.21875 -17.828125 L 0.21875 -22.4375 L 19.359375 -22.4375 Z M 19.359375 -17.828125 "/></g></g></g><g fill="#31373e" fill-opacity="1"><g transform="translate(208.334566, 246.179602)"><g><path d="M 19.78125 -17.921875 L 7.9375 -17.921875 L 7.9375 -13.46875 L 18.625 -13.46875 L 18.625 -8.984375 L 7.9375 -8.984375 L 7.9375 -4.484375 L 20.125 -4.484375 L 20.125 0 L 2.234375 0 L 2.234375 -22.40625 L 19.78125 -22.40625 Z M 19.78125 -17.921875 "/></g></g></g><g fill="#31373e" fill-opacity="1"><g transform="translate(229.897271, 246.179602)"><g><path d="M 22.90625 0 L 17.890625 0 L 7.578125 -13.796875 L 7.578125 0 L 2.234375 0 L 2.234375 -22.40625 L 7.265625 -22.40625 L 17.59375 -8.578125 L 17.59375 -22.40625 L 22.90625 -22.40625 Z M 22.90625 0 "/></g></g></g><g fill="#31373e" fill-opacity="1"><g transform="translate(255.043087, 246.179602)"><g><path d="M 2.234375 -22.40625 L 11.875 -22.40625 C 15.394531 -22.40625 18.257812 -21.367188 20.46875 -19.296875 C 22.675781 -17.222656 23.78125 -14.523438 23.78125 -11.203125 C 23.78125 -7.890625 22.660156 -5.191406 20.421875 -3.109375 C 18.179688 -1.035156 15.253906 0 11.640625 0 L 2.234375 0 Z M 7.9375 -17.859375 L 7.9375 -4.546875 L 12 -4.546875 C 13.75 -4.546875 15.179688 -5.15625 16.296875 -6.375 C 17.421875 -7.601562 17.984375 -9.195312 17.984375 -11.15625 C 17.984375 -13.125 17.394531 -14.734375 16.21875 -15.984375 C 15.050781 -17.234375 13.5625 -17.859375 11.75 -17.859375 Z M 7.9375 -17.859375 "/></g></g></g></svg>